<?xml version="1.0" encoding="UTF-8" standalone="no"?>
<!DOCTYPE svg PUBLIC "-//W3C//DTD SVG 1.1//EN" "http://www.w3.org/Graphics/SVG/1.1/DTD/svg11.dtd">
<svg width="100%" height="100%" viewBox="0 0 520 154" version="1.1" xmlns="http://www.w3.org/2000/svg" xmlns:xlink="http://www.w3.org/1999/xlink" xml:space="preserve" xmlns:serif="http://www.serif.com/" style="fill-rule:evenodd;clip-rule:evenodd;stroke-linejoin:round;stroke-miterlimit:2;">
    <g transform="matrix(1,0,0,1,-280.387527,-766.998464)">
        <g transform="matrix(1,0,0,1,0,506.25)">
            <g transform="matrix(3.631794,0,0,3.631794,-1212.318408,-1026.957402)">
                <path d="M416.411,354.565L411.011,354.565L411.011,374.265C411.011,379.115 412.561,380.365 417.411,380.365L433.711,380.365C438.561,380.365 440.111,379.115 440.111,374.265L440.111,354.565L434.584,354.565L434.584,375.515L416.411,375.515L416.411,354.565Z" style="fill:white;fill-rule:nonzero;"/>
            </g>
            <g transform="matrix(3.332077,0,0,3.631794,-1096.822917,-1026.957402)">
                <rect x="486.761" y="354.565" width="6" height="25.8" style="fill:white;fill-rule:nonzero;"/>
            </g>
            <g transform="matrix(1,0,0,1,-0.449576,0)">
                <g transform="matrix(3.631794,0,0,3.631794,-1257.44384,-1026.957402)">
                    <path d="M500.411,360.665C500.411,355.815 501.961,354.565 506.811,354.565L525.811,354.565C530.661,354.565 532.211,355.815 532.211,360.665L532.211,374.265C532.211,379.115 530.661,380.365 525.811,380.365L506.811,380.365C501.961,380.365 500.411,379.115 500.411,374.265L500.411,360.665Z" style="fill:white;"/>
                </g>
                <g transform="matrix(2.409434,0,0,2.118539,-626.3266,-470.889561)">
                    <path d="M500.411,360.665C500.411,355.815 501.961,354.565 506.811,354.565L525.811,354.565C530.661,354.565 532.211,355.815 532.211,360.665L532.211,374.265C532.211,379.115 530.661,380.365 525.811,380.365L506.811,380.365C501.961,380.365 500.411,379.115 500.411,374.265L500.411,360.665Z" style="fill:rgb(255,184,0);"/>
                </g>
            </g>
            <g transform="matrix(3.631794,0,0,3.631794,-1271.093463,-1026.957402)">
                <path d="M539.811,380.365L545.211,380.365L545.211,362.619L566.061,380.365L570.161,380.365L570.161,354.565L564.761,354.565L564.761,372.026L543.911,354.565L539.811,354.565L539.811,380.365Z" style="fill:white;fill-rule:nonzero;"/>
            </g>
            <g transform="matrix(3.631794,0,0,3.631794,-1560.006674,-1026.957402)">
                <path d="M539.811,380.365L545.211,380.365L545.211,362.619L566.061,380.365L570.161,380.365L570.161,354.565L564.761,354.565L564.761,372.026L543.911,354.565L539.811,354.565L539.811,380.365Z" style="fill:white;fill-rule:nonzero;"/>
            </g>
            <g transform="matrix(1.539099,0,0,1.539099,199.346701,-464.14774)">
                <path d="M78.086,570.723L82.104,570.723L82.104,543.801L76.843,543.801L67.607,566.291L67.317,566.291L57.956,543.801L52.655,543.801L52.655,570.723L56.714,570.723L56.714,555.15C56.714,553.99 56.59,551.836 56.465,549.682C57.211,551.753 57.956,553.783 58.495,555.108L65.039,570.723L69.761,570.723L76.388,555.067C76.968,553.741 77.63,551.836 78.334,549.848C78.21,552.043 78.086,554.114 78.086,555.191L78.086,570.723Z" style="fill:white;fill-rule:nonzero;"/>
                <path d="M120.54,570.723L125.013,570.723L115.57,543.801L109.606,543.801L100.204,570.723L104.677,570.723L106.582,565.049L118.635,565.049L120.54,570.723ZM112.422,547.611L112.753,547.611L117.392,561.363L107.825,561.363L112.422,547.611Z" style="fill:white;fill-rule:nonzero;"/>
                <path d="M147.297,570.723L147.297,562.191L156.699,562.191L160.344,570.723L164.61,570.723L160.965,562.191L161.131,562.191C163.492,562.191 164.651,560.907 164.651,558.422L164.651,547.984C164.651,545.292 163.533,543.801 160.799,543.801L143.072,543.801L143.072,570.723L147.297,570.723ZM147.297,558.463L147.297,547.736L160.551,547.736L160.551,558.463L147.297,558.463Z" style="fill:white;fill-rule:nonzero;"/>
                <path d="M188.136,570.723L188.136,559.002L189.047,559.002L200.106,570.723L205.656,570.723L193.023,557.303L193.023,556.931L205.159,543.801L200.023,543.801L189.047,555.771L188.136,555.771L188.136,543.801L183.911,543.801L183.911,570.723L188.136,570.723Z" style="fill:white;fill-rule:nonzero;"/>
                <path d="M223.3,570.723L243.057,570.723L243.057,566.871L227.525,566.871L227.525,558.919L237.963,558.919L237.963,555.233L227.525,555.233L227.525,547.653L243.057,547.653L243.057,543.801L223.3,543.801L223.3,570.723Z" style="fill:white;fill-rule:nonzero;"/>
                <path d="M268.82,570.723L273.127,570.723L273.127,547.736L282.571,547.736L282.571,543.801L259.418,543.801L259.418,547.736L268.82,547.736L268.82,570.723Z" style="fill:white;fill-rule:nonzero;"/>
                <rect x="300.381" y="543.801" width="4.266" height="26.922" style="fill:white;fill-rule:nonzero;"/>
                <path d="M348.468,570.723L348.468,543.801L344.451,543.801L344.451,556.599C344.451,557.511 344.492,562.315 344.492,566.664C342.214,562.812 339.604,558.629 338.569,556.972L330.244,543.801L324.859,543.801L324.859,570.723L328.836,570.723L328.836,557.262C328.836,555.771 328.836,552.126 328.794,548.523C331.072,552.375 333.599,556.392 334.8,558.339L342.628,570.723L348.468,570.723Z" style="fill:white;fill-rule:nonzero;"/>
                <path d="M390.011,551.132L390.011,547.86C390.011,545.168 388.976,543.801 386.284,543.801L371.828,543.801C369.592,543.801 367.976,544.795 367.976,547.736L367.976,566.498C367.976,569.398 369.882,570.723 372.367,570.723L385.911,570.723C388.893,570.723 390.011,568.818 390.011,566.581L390.011,555.895L379.077,555.895L379.077,559.457L385.911,559.457L385.911,566.788L372.077,566.788L372.077,547.736L385.911,547.736L385.911,551.132L390.011,551.132Z" style="fill:white;fill-rule:nonzero;"/>
            </g>
        </g>
    </g>
</svg>
